<svg aria-hidden="true" focusable="false" viewBox="0 0 192 192" tabindex="-1" xmlns="http://www.w3.org/2000/svg">
	<defs>
		<linearGradient id="grad-contour" x1="0%" y1="0%" x2="0%" y2="100%">
			<stop offset="0%" stop-color="#007cc0" />
			<stop offset="45%" stop-color="#007cc0" />
			<stop offset="50%" stop-color="#fff" />
			<stop offset="55%" stop-color="#a3c5e2" />
			<stop offset="100%" stop-color="#a3c5e2" />
		</linearGradient>
		<pattern
			id="pat-contour"
			x="0"
			y="0"
			width="100%"
			height="100%"
			patternUnits="userSpaceOnUse"
		>
			<rect y="0%" x="0%" width="100%" height="140%" fill="url(#grad-contour)">
				<animate
					attributeType="XML"
					attributeName="y"
					calcMode="spline"
					dur="2.5s"
					values="-50%; 0%; 0"
					keyTimes="0; 0.5; 1"
					keySplines="0.5,0,0.5,1; 0.5,0,0.5,1"
					repeatCount="indefinite"
				/>
			</rect>
			<circle cx="96" cy="96" r="50" fill="#a3c5e2" fill-opacity="1">
				<animate
					attributeName="r"
					dur="2.5s"
					calcMode="spline"
					repeatCount="indefinite"
					values="0; 0; 51; 51"
					keyTimes="0; 0.5; 1; 1"
					keySplines="0.5,0,0.5,1; 0.5,0,0.5,1; 0.5,0,0.5,1"
				/>
			</circle>
		</pattern>
		<pattern
			id="pat-h"
			x="0"
			y="0"
			width="100%"
			height="100%"
			patternUnits="userSpaceOnUse"
		>
			<rect x="0%" y="0%" width="100%" height="100%" fill="#a3c5e2"></rect>
			<circle cx="96" cy="96" r="50" fill="#007cc0" fill-opacity="1">
				<animate
					attributeName="r"
					dur="2.5s"
					calcMode="spline"
					repeatCount="indefinite"
					values="0; 50; 50; 50"
					keyTimes="0; 0.5; 1; 1"
					keySplines="0.5,0,0.5,1; 0.5,0,0.5,1; 0.5,0,0.5,1"
				/>
			</circle>
			<circle cx="96" cy="96" r="50" fill="#a3c5e2" fill-opacity="1">
				<animate
					attributeName="r"
					dur="2.5s"
					calcMode="spline"
					repeatCount="indefinite"
					values="0; 0; 50; 50"
					keyTimes="0; 0.5; 1; 1"
					keySplines="0.5,0,0.5,1; 0.5,0,0.5,1; 0.5,0,0.5,1"
				/>
			</circle>
		</pattern>
	</defs>
	<path
		d="M42.7156 125.392l2.1087.241c.9584.096 1.0543.913 1.0543 1.393v2.499h-9.7284v-2.499c0-.528.0958-1.297 1.0543-1.393l2.1086-.241v-2.162H26.7093v2.162l2.1086.241c.9585.096 1.0543.913 1.0543 1.393v8.218c0 .529-.0958 1.298-1.0543 1.394l-2.1086.24v2.115h12.6038v-2.115l-2.1086-.24c-.9585-.096-1.0543-.913-1.0543-1.394v-2.499h9.7284v2.499c0 .529-.0959 1.298-1.0543 1.394l-2.1087.24v2.115h12.6518v-2.115l-2.1086-.24c-.9585-.096-1.0543-.913-1.0543-1.394v-8.218c0-.528.0958-1.297 1.0543-1.393l2.1086-.241v-2.162H42.7636v2.162h-.048zm84.2014-2.114h-15.575v2.162l1.869.193c.671.096 1.102.384 1.102 1.297v8.362c0 .529-.096 1.298-1.054 1.394l-2.109.24v2.115h15.767c5.655 0 10.303-2.259 10.303-7.882 0-5.623-4.648-7.881-10.303-7.881zm-1.15 12.783h-5.272v-9.756h5.272c3.115 0 4.169 1.49 4.169 4.854 0 3.412-1.054 4.902-4.169 4.902zM163.914 136.734c-1.007-.096-1.294-.769-1.63-1.25l-7.236-11.101c-.527-.817-.911-1.057-1.677-1.057H141.39v2.162l2.875.337c.384.048.959.576.479 1.345l-5.367 8.747c-.24.336-.479.769-1.102.865l-2.157.24v2.115h10.064v-2.163l-1.725-.192c-.719-.096-1.15-.577-.767-1.201l.815-1.298h9.68l.719 1.105c.623.962-.144 1.346-.862 1.442l-1.774.192v2.163h13.659v-2.115l-2.013-.336zm-17.684-5.238l2.971-4.854 3.163 4.854h-6.134zm-46.006-6.056l2.108.241c.959.096 1.055.913 1.055 1.393v7.882l-8.3391-11.006c-.3834-.528-.7188-.672-1.5814-.672H82.6358v2.162l2.1086.241c.9585.096 1.0543.913 1.0543 1.393v8.218c0 .529-.0958 1.298-1.0543 1.394l-2.1086.24v2.115h10.0639v-2.115l-2.1086-.24c-.9585-.096-1.0544-.913-1.0544-1.394v-7.881l8.3387 11.005c.3834.529.7188.673 1.5815.673h7.6681v-12.015c0-.528.095-1.297 1.054-1.393l2.109-.241v-2.162h-10.064v2.162zm-31.1505-2.643c-10.2556 0-12.8914 4.518-12.8914 8.458 0 3.941 2.6358 8.459 12.8914 8.459 10.2556 0 12.8914-4.518 12.8914-8.459 0-3.988-2.6358-8.458-12.8914-8.458zm0 13.841c-3.9777 0-5.6071-1.682-5.6071-5.431 0-3.748 1.6774-5.43 5.6071-5.43 3.9776 0 5.607 1.682 5.607 5.43 0 3.749-1.6294 5.431-5.607 5.431z"
		fill="#007cc0"
	/>
	<path
		d="M113.786 56.6209c-1.725 7.7854-2.444 11.3417-3.834 16.9645-1.342 5.3826-2.396 10.4287-4.217 12.8316-1.821 2.451-4.313 2.9796-5.9906 3.1718-.8626.0962-1.4856.1442-3.3546.1442s-2.492-.048-3.3547-.1442c-1.6773-.1922-4.1214-.7208-5.9904-3.1718-1.8211-2.451-2.8754-7.449-4.2172-12.8316-1.3898-5.6228-2.1087-9.1791-3.8339-16.9645 0 0-1.7252.048-2.492.1442-1.0543.0961-1.869.1441-2.7316.2883 0 0 1.0064 15.9553 1.4377 22.7316.4792 7.1126 1.2939 19.1271 2.1086 28.162 0 0 1.4377.24 3.8818.385 2.5399.144 3.6901.144 3.6901.144 1.0543-3.989 2.3482-9.5158 3.7859-11.8707 1.1981-1.9223 3.0192-2.1145 4.0735-2.2587 1.6294-.2403 3.0192-.2403 3.6422-.2403.623 0 2.0128 0 3.6422.2403 1.054.1442 2.875.3364 4.073 2.2587 1.486 2.3549 2.78 7.8817 3.786 11.8707 0 0 1.151 0 3.69-.144 2.397-.145 3.882-.385 3.882-.385.767-9.0349 1.63-21.0494 2.109-28.162.431-6.7763 1.438-22.7316 1.438-22.7316-.863-.0961-1.678-.1922-2.732-.2883-.767-.0962-2.492-.1442-2.492-.1442z"
		fill="url(#pat-h)"
	/>
	<path
		d="M133.866 66.0403c-1.007-10.1403-7.764-12.3029-13.706-13.2641-2.972-.4806-8.291-.9131-11.694-1.0573-2.971-.1922-9.9676-.2883-12.0762-.2883-2.0607 0-9.1055.0961-12.0767.2883-3.4026.1442-8.722.5767-11.6933 1.0573-5.9425 1.0092-12.6517 3.1238-13.7061 13.2641-.2875 2.7874-.3833 6.3917-.2875 10.2364.0958 6.4398.623 10.765.9585 13.7927.1917 2.0665 1.0543 8.266 2.1565 11.4856 1.5336 4.422 2.8754 5.671 4.5048 7.017 2.9233 2.403 7.7636 3.124 8.77 3.316 5.4632.961 16.4856 1.153 21.3738 1.153 4.8882 0 15.9102-.192 21.3742-1.153 1.006-.192 5.846-.913 8.77-3.316 1.581-1.298 2.971-2.595 4.504-7.017 1.103-3.2196 1.965-9.4191 2.157-11.4856.335-3.0277.863-7.3529.958-13.7927.096-3.8927 0-7.4971-.287-10.2364zm-3.69 17.0126c-.575 8.1219-1.294 12.9757-2.349 16.484-.91 3.0761-2.012 5.1421-3.642 6.6321-2.731 2.451-6.469 3.028-8.674 3.316-4.744.721-12.795.961-19.0733.961-6.278 0-14.3291-.24-19.0735-.961-2.2045-.336-5.9425-.865-8.6741-3.316-1.6294-1.49-2.7316-3.556-3.6422-6.6321-1.0064-3.5083-1.7252-8.3621-2.3482-16.484-.3834-4.9019-.2876-12.7835.2396-17.0607.8147-6.3437 3.9297-9.5155 10.6869-10.717 3.1629-.5767 7.3802-.9611 11.3578-1.1534 3.2109-.2402 8.4825-.3364 11.4537-.2883 2.9712-.0481 8.2433.0961 11.4533.2883 4.026.1923 8.243.5767 11.358 1.1534 6.709 1.2015 9.872 4.3733 10.687 10.717.527 4.2772.575 12.2068.24 17.0607z"
		fill="url(#pat-contour)"
	/>
</svg>
